<svg xmlns="http://www.w3.org/2000/svg" width="36" height="44" viewBox="0 0 36 44">
  <path id="File_Type_PDF" data-name="File Type PDF" d="M640,2920H612a4,4,0,0,1-4-4v-36a4,4,0,0,1,4-4h22l10,11v29A4,4,0,0,1,640,2920Zm-7-42h-1v10h10Zm9,12H632a2,2,0,0,1-2-2v-10H612a2,2,0,0,0-2,2v36a2,2,0,0,0,2,2h28a2,2,0,0,0,2-2Zm-9.258,13.354h2.663v1.458h-2.663V2908H631.06v-7.93h4.532v1.471h-2.85Zm-4.357,3.705a5.084,5.084,0,0,1-3.422,1.023,13.753,13.753,0,0,1-1.9-.117v-7.788a13.88,13.88,0,0,1,2.266-.165,4.542,4.542,0,0,1,3.036.847,3.607,3.607,0,0,1,1.254,2.989A4.156,4.156,0,0,1,628.385,2907.059Zm-2.883-5.67a3.315,3.315,0,0,0-.76.07v5.189a2.914,2.914,0,0,0,.584.035c1.518.011,2.508-.882,2.508-2.777A2.2,2.2,0,0,0,625.5,2901.389Zm-6.209,3.811a3.892,3.892,0,0,1-.572-.035V2908H617.06v-7.823a12.751,12.751,0,0,1,2.266-.165,3.386,3.386,0,0,1,2.266.636,2.387,2.387,0,0,1,.793,1.834,2.628,2.628,0,0,1-.683,1.883A3.3,3.3,0,0,1,619.293,2905.2Zm.121-3.835a2.628,2.628,0,0,0-.693.071v2.341a2.355,2.355,0,0,0,.56.047,1.266,1.266,0,0,0,1.442-1.295C620.723,2901.8,620.25,2901.365,619.414,2901.365Z" transform="translate(-608 -2876.001)" fill="#fff" fill-rule="evenodd"/>
</svg>
