<svg xmlns="http://www.w3.org/2000/svg" width="44" height="44" viewBox="0 0 44 44">
  <path id="Google_Plus_Circle" data-name="Google Plus Circle" d="M374,2752a22,22,0,1,1,22-22A22,22,0,0,1,374,2752Zm0-42a20,20,0,1,0,20,20A20,20,0,0,0,374,2710Zm7.995,20.984h-2V2728h-3.009v-2h3.009v-3h2v3h3.014v2h-3.014Zm-7.487-7.381a3.847,3.847,0,0,1,.685,2.29,3.594,3.594,0,0,1-1.42,2.778c-.706.578-.706.716-.706,1.016a3.165,3.165,0,0,0,1.01,1.12,3.722,3.722,0,0,1,1.736,3.39c0,1.844-1.688,3.8-4.818,3.8-2.9,0-5-1.336-5-3.177,0-2.05,2.185-3.785,4.78-3.8a1.95,1.95,0,0,1-.21-.883,2.154,2.154,0,0,1,.049-.447,3.738,3.738,0,0,1-3.65-3.827,4.215,4.215,0,0,1,4.315-3.862h5.73l-2.115,1.6Zm-6.068,10.714a2.327,2.327,0,0,0,2.546,2.091c1.888,0,2.845-.679,2.845-2.019a1.719,1.719,0,0,0-.044-.389c-.12-.494-.521-.8-1.28-1.343l-.3-.212a3.192,3.192,0,0,0-.93-.146l-.039-.418h0v.418C369.749,2732.3,368.44,2733.242,368.44,2734.317Zm4.315-8.279c-.171-1.365-1.091-2.5-2.051-2.53l-.037-.416h0v.415a1.091,1.091,0,0,0-.834.393,2.479,2.479,0,0,0-.432,1.9c.171,1.365,1.11,2.544,2.051,2.572h0a1.081,1.081,0,0,0,.855-.392A2.536,2.536,0,0,0,372.755,2726.038Z" transform="translate(-352 -2708)" fill="#fff" fill-rule="evenodd"/>
</svg>
