<svg xmlns="http://www.w3.org/2000/svg" width="21" height="21" viewBox="0 0 21 21">
  <g id="Outline_1_" transform="translate(-2 -1)">
    <g id="Groupe_245" data-name="Groupe 245">
      <path id="Tracé_2976" data-name="Tracé 2976" d="M18,20H4V6h9V4H4A2.006,2.006,0,0,0,2,6V20a2.006,2.006,0,0,0,2,2H18a2.006,2.006,0,0,0,2-2V11H18Z"/>
      <path id="Tracé_2977" data-name="Tracé 2977" d="M10.21,16.83,8.25,14.47,5.5,18h11l-3.54-4.71Z"/>
      <path id="Tracé_2978" data-name="Tracé 2978" d="M20,4V1H18V4H15c.01.01,0,2,0,2h3V8.99c.01.01,2,0,2,0V6h3V4Z"/>
    </g>
  </g>
</svg>
