<svg xmlns="http://www.w3.org/2000/svg" width="44" height="44" viewBox="0 0 44 44">
  <path id="Instagram_Circle" data-name="Instagram Circle" d="M794,2752a22,22,0,1,1,22-22A22,22,0,0,1,794,2752Zm0-42a20,20,0,1,0,20,20A20,20,0,0,0,794,2710Zm6,30H788a4,4,0,0,1-4-4v-12a4,4,0,0,1,4-4h12a4,4,0,0,1,4,4v12A4,4,0,0,1,800,2740Zm-6-14a4,4,0,1,0,4,4A4,4,0,0,0,794,2726Zm7-3h-3v3h3Zm1,6h-2.1a5.89,5.89,0,0,1,.1,1,6,6,0,1,1-11.9-1H786v7a2,2,0,0,0,2,2h12a2,2,0,0,0,2-2Z" transform="translate(-772 -2708)" fill="#fff" fill-rule="evenodd"/>
</svg>
