<svg xmlns="http://www.w3.org/2000/svg" width="44" height="44" viewBox="0 0 44 44">
  <path id="LinkedIn_Circle" data-name="LinkedIn Circle" d="M458,2752a22,22,0,1,1,22-22A22,22,0,0,1,458,2752Zm0-42a20,20,0,1,0,20,20A20,20,0,0,0,458,2710Zm5,22c0-1.12-.344-2.015-1.3-2.015-1.7,0-1.7,2.015-1.7,2.015v6h-4v-11h4l0,1.77s.4-1.785,3.361-1.785c2.282,0,3.643,1.884,3.643,5.015v6h-4Zm-13-5.015h3.985V2738H450Zm1.993-.979a2,2,0,1,1,1.992-2A2,2,0,0,1,451.993,2726.006Z" transform="translate(-436 -2708)" fill="#fff" fill-rule="evenodd"/>
</svg>
