<svg xmlns="http://www.w3.org/2000/svg" width="44" height="44" viewBox="0 0 44 44">
  <path id="Twitter_Circle" data-name="Twitter Circle" d="M794,2668a22,22,0,1,1,22-22A22,22,0,0,1,794,2668Zm0-42a20,20,0,1,0,20,20A20,20,0,0,0,794,2626Zm8.953,15.986q.012.259.012.522A11.5,11.5,0,0,1,791.29,2654a11.758,11.758,0,0,1-6.29-1.814,8.565,8.565,0,0,0,.978.055,8.309,8.309,0,0,0,5.1-1.728,4.1,4.1,0,0,1-3.832-2.8,4.212,4.212,0,0,0,1.853-.068,4.06,4.06,0,0,1-3.292-3.961c0-.018,0-.033,0-.051a4.143,4.143,0,0,0,1.858.506,4.02,4.02,0,0,1-1.825-3.361,3.969,3.969,0,0,1,.556-2.032,11.71,11.71,0,0,0,8.457,4.221,3.953,3.953,0,0,1-.106-.921,4.071,4.071,0,0,1,4.1-4.038,4.127,4.127,0,0,1,2.995,1.275,8.3,8.3,0,0,0,2.605-.98,4.065,4.065,0,0,1-1.8,2.234A8.284,8.284,0,0,0,805,2639.9,8.314,8.314,0,0,1,802.953,2641.986Z" transform="translate(-772 -2624)" fill="#fff" fill-rule="evenodd"/>
</svg>
